<svg id="Layer_1" viewBox="0 0 512 512" xmlns="http://www.w3.org/2000/svg" xmlns:xlink="http://www.w3.org/1999/xlink" data-name="Layer 1"><linearGradient id="linear-gradient" gradientUnits="userSpaceOnUse" x1="256" x2="256" y1="508.005" y2="3.995"><stop offset="0" stop-color="#9CA3AF"/><stop offset="1" stop-color="#D1D5DB"/></linearGradient><path d="m233.282 338.669c7.735-4.988 13.274-12.59 15.686-21.592 2.573-9.604 1.269-19.607-3.674-28.167-4.942-8.561-12.953-14.693-22.557-17.266-9.001-2.41-18.355-1.417-26.542 2.788l-21.452-37.156c-4.365-7.562-12.171-11.983-20.914-11.821-8.73.16-16.381 4.861-20.468 12.577-2.949 5.569-5.723 11.362-8.659 17.495-12.024 25.119-25.654 53.589-55.199 70.647l-37.721 21.778c-12.82 7.402-22.004 19.401-25.859 33.789s-1.902 29.372 5.5 42.192c10.291 17.824 29.025 27.8 48.264 27.8 7.213 0 14.496-1.408 21.433-4.325l26.682 46.214c3.832 6.636 10.04 11.389 17.481 13.382 2.494.668 5.022.999 7.533.999 4.979 0 9.885-1.301 14.297-3.849 13.742-7.934 18.467-25.568 10.533-39.311l-26.331-45.607c27.69-13.438 56.737-11.202 82.573-9.205 6.786.524 13.195 1.02 19.5 1.25 8.744.327 16.622-3.958 21.125-11.438s4.585-16.46.219-24.022l-21.451-37.155zm-14.169-53.503c5.991 1.605 10.983 5.42 14.056 10.743 3.073 5.322 3.881 11.553 2.276 17.544-1.443 5.385-4.683 9.95-9.186 13.052l-23.042-39.91c4.938-2.349 10.511-2.872 15.896-1.429zm-195.565 131.768c-5.532-9.582-6.989-20.793-4.102-31.568s9.754-19.756 19.336-25.289l31.659-18.278 41.622 72.092-31.659 18.278c-19.875 11.474-45.381 4.64-56.857-15.235zm116.566 75.098c-7.057 4.075-16.113 1.648-20.188-5.409l-26.46-45.83 25.597-14.779 26.459 45.829c4.074 7.058 1.647 16.113-5.409 20.188zm-15.82-84.957-41.836-72.463c29.143-19.298 42.766-47.751 54.872-73.04.897-1.874 1.777-3.704 2.651-5.513l81.105 140.478c-2.01-.148-4.04-.302-6.118-.462-27.956-2.161-59.414-4.591-90.674 11zm118.226-14.45c-1.248 2.073-3.013 3.485-5.115 4.178l-89.495-155.009c1.652-1.475 3.756-2.297 6.175-2.342.069 0 .138-.002.207-.002 3.575 0 6.527 1.708 8.327 4.826l79.99 138.548c1.835 3.178 1.803 6.659-.089 9.802zm27.601-109.967c-1.102.636-2.306.939-3.494.939-2.419 0-4.771-1.255-6.068-3.501-1.933-3.348-.786-7.629 2.562-9.562l27.97-16.149c3.347-1.931 7.628-.786 9.562 2.562 1.933 3.348.786 7.629-2.562 9.562zm-22.13-71.503c3.348 1.933 4.495 6.214 2.562 9.562l-15.917 27.57c-1.296 2.246-3.649 3.501-6.068 3.501-1.188 0-2.391-.302-3.494-.939-3.348-1.933-4.495-6.214-2.562-9.562l15.917-27.57c1.933-3.349 6.214-4.496 9.562-2.562zm65.989 114.295c0 3.866-3.134 7-7 7h-31.835c-3.866 0-7-3.134-7-7s3.134-7 7-7h31.835c3.866 0 7 3.134 7 7zm165.532-321.455h-161.229c-15.713 0-28.497 12.784-28.497 28.497v115.995c0 15.713 12.784 28.497 28.497 28.497h14.945v44.503c0 2.917 1.809 5.528 4.54 6.553.802.301 1.634.447 2.459.447 1.981 0 3.916-.842 5.271-2.393l42.929-49.11h91.085c15.713 0 28.497-12.784 28.497-28.497v-115.995c0-15.713-12.784-28.497-28.497-28.497zm14.497 144.492c0 7.994-6.503 14.497-14.497 14.497h-94.263c-2.02 0-3.941.873-5.27 2.393l-32.75 37.467v-32.86c0-3.866-3.134-7-7-7h-21.945c-7.994 0-14.497-6.503-14.497-14.497v-115.995c0-7.994 6.503-14.497 14.497-14.497h161.229c7.994 0 14.497 6.503 14.497 14.497v115.995zm-23.187-11.598c0 3.866-3.134 7-7 7h-129.849c-3.866 0-7-3.134-7-7s3.134-7 7-7h129.849c3.866 0 7 3.134 7 7zm-143.849-61.866c0-3.866 3.134-7 7-7h70.051c3.866 0 7 3.134 7 7s-3.134 7-7 7h-70.051c-3.866 0-7-3.134-7-7zm143.849 0c0 3.866-3.134 7-7 7h-33.208c-3.866 0-7-3.134-7-7s3.134-7 7-7h33.208c3.866 0 7 3.134 7 7zm0-30.933c0 3.866-3.134 7-7 7h-129.849c-3.866 0-7-3.134-7-7s3.134-7 7-7h129.849c3.866 0 7 3.134 7 7zm0 61.866c0 3.866-3.134 7-7 7h-129.849c-3.866 0-7-3.134-7-7s3.134-7 7-7h129.849c3.866 0 7 3.134 7 7zm-44.063 143.27c-44.801 0-81.25 36.449-81.25 81.25s36.449 81.25 81.25 81.25 81.25-36.449 81.25-81.25-36.449-81.25-81.25-81.25zm0 148.5c-37.082 0-67.25-30.168-67.25-67.25s30.168-67.25 67.25-67.25 67.25 30.168 67.25 67.25-30.168 67.25-67.25 67.25zm36.576-79.524-43.848-25.316c-4.438-2.561-9.735-2.561-14.173 0-4.438 2.562-7.086 7.15-7.086 12.274v50.631c0 5.125 2.649 9.713 7.087 12.274 2.219 1.28 4.652 1.921 7.086 1.921s4.868-.641 7.087-1.921l43.847-25.315c4.438-2.562 7.087-7.15 7.087-12.274s-2.649-9.712-7.086-12.274zm-6.916 12.367c-.015.013-.042.032-.084.056l-43.847 25.315c-.042.024-.073.038-.083.045-.019-.007-.049-.021-.092-.045-.042-.024-.068-.043-.079-.048-.003-.02-.007-.053-.007-.102v-50.631c0-.049.003-.082.002-.093.015-.013.042-.032.084-.057.042-.024.073-.038.083-.045.019.007.049.021.091.045l43.848 25.316c.042.024.068.043.079.048.003.02.007.053.007.102s-.003.082-.002.093zm-374.065-126.216h22.864c5.347 0 10.025-2.865 12.617-7.132 6.206.633 10.265 1.839 14.852 3.207 3.628 1.082 7.74 2.309 13.166 3.297 6.324 1.151 13.134 1.584 20.122 1.584 11.418 0 23.305-1.157 34.28-2.226 4.53-.441 8.811-.857 12.901-1.181h19.414c10.851 0 19.678-8.828 19.678-19.679 0-3.254-.807-6.319-2.211-9.025 5.802-3.739 9.661-10.242 9.661-17.642 0-4.367-1.344-8.425-3.635-11.788 4.666-3.853 7.645-9.68 7.645-16.189 0-6.452-2.931-12.228-7.525-16.081 2.339-3.385 3.717-7.481 3.717-11.897 0-11.573-9.416-20.988-20.989-20.988h-36.244c2.064-18.634 3.862-51.098-11.12-66.322-6.294-6.396-14.963-9.174-25.074-8.041-6.91.777-11.865 6.813-11.281 13.742 3.73 44.282-5.72 61.478-38.533 67.758-2.711-3.318-6.831-5.442-11.439-5.442h-22.864c-8.144 0-14.769 6.625-14.769 14.77v94.507c0 8.144 6.625 14.77 14.769 14.77zm160.364-83.763c3.854 0 6.988 3.135 6.988 6.989s-3.135 6.989-6.988 6.989h-36.986c-3.854 0-6.988-3.135-6.988-6.988s3.135-6.99 6.988-6.99zm-4.01 41.956h-31.859c-3.854 0-6.989-3.135-6.989-6.989s3.135-6.989 6.989-6.989h31.859c3.854 0 6.989 3.135 6.989 6.989s-3.135 6.989-6.989 6.989zm-6.139 25.357h-19.702c-3.131 0-5.678-2.547-5.678-5.678s2.547-5.679 5.678-5.679h19.702c3.131 0 5.678 2.547 5.678 5.678s-2.547 5.679-5.678 5.679zm6.34-95.291c3.854 0 6.989 3.135 6.989 6.988s-3.135 6.989-6.989 6.989h-27.748c-3.854 0-6.989-3.135-6.989-6.989s3.135-6.988 6.989-6.988zm-69.666-74.56c5.307-.376 9.247.931 12.325 4.058 8.397 8.533 10.5 29.598 6.252 62.609-.004.029-.003.058-.007.087-.018.156-.028.314-.035.473-.004.09-.01.179-.011.268-.001.142.006.286.014.429.005.103.008.207.018.309.003.029.002.058.005.087 2.716 24.853-3.192 36.829-21.074 42.715-3.672 1.208-5.669 5.166-4.46 8.837.97 2.946 3.707 4.813 6.648 4.813.725 0 1.463-.114 2.189-.353 6.027-1.984 10.943-4.569 14.943-7.589 1.024 2.785 2.61 5.296 4.638 7.386-3.013 3.634-4.827 8.296-4.827 13.375 0 7.361 3.817 13.837 9.567 17.585-1.423 2.72-2.239 5.806-2.239 9.082 0 2.594.517 5.067 1.434 7.338-15.674 1.499-32.762 2.847-46.261.389-4.669-.85-8.071-1.865-11.672-2.939-4.714-1.406-9.57-2.85-16.701-3.64v-84.017c45.147-9.123 52.617-39.156 49.255-81.304zm-87.658 77.025c0-.41.359-.77.769-.77h22.864c.41 0 .77.359.77.77v94.507c0 .41-.359.77-.77.77h-22.864c-.41 0-.769-.359-.769-.77z" fill="url(#linear-gradient)"/></svg>