<svg id="_x30_1" enable-background="new 0 0 64 64" height="512" viewBox="0 0 64 64" width="512" xmlns="http://www.w3.org/2000/svg" xmlns:xlink="http://www.w3.org/1999/xlink"><linearGradient id="SVGID_1_" gradientUnits="userSpaceOnUse" x1="32" x2="32" y1="63" y2="1"><stop offset="0" stop-color="#9CA3AF"/><stop offset="1" stop-color="#D1D5DB"/></linearGradient><path d="m17.293 33.707-4-4 1.414-1.414 4 4zm-.293 5.293v-4h-2v4zm2.789 1.658.105-.211-1.789-.895-.105.212c-.381.762-1.147 1.236-2 1.236s-1.619-.474-2-1.236l-.105-.211-1.789.895.105.211c.722 1.444 2.174 2.341 3.789 2.341s3.067-.897 3.789-2.342zm43.211 21.342v1h-62v-1c0-6.338 4.271-11.929 10.385-13.596l.223-.061c.348-.095.619-.372.707-.724l.365-1.46c-1.909-1.033-3.278-2.93-3.6-5.16h-1.08c-1.654 0-3-1.346-3-3 0-1.079.577-2.018 1.434-2.547l-.491-.736c-.617-.924-.943-2-.943-3.113 0-2.581 1.749-4.82 4.253-5.446l.103-.026.369-.614c1.228-2.047 3.207-3.517 5.458-4.156-.119-.043-.236-.092-.359-.123-1.001-.25-1.793-.983-2.119-1.962l-.161-.483c-.494.13-1.01.207-1.544.207s-1.049-.077-1.543-.208l-.16.482c-.327.979-1.119 1.713-2.12 1.963-1.41.353-2.505 1.501-2.79 2.927l-.407 2.032-1.96-.392.406-2.033c.267-1.336 1.003-2.51 2.027-3.345-.952-1.683-1.453-3.579-1.453-5.528v-5.898c0-4.411 3.589-8 8-8s8 3.589 8 8v5.395c0 2.104-.514 4.165-1.49 6.017.233.187.45.391.653.612 2.3.114 4.38 1.061 5.945 2.553l3.628-1.209c.297-.1.533-.336.633-.633l.211-.635c-1.566-.882-2.76-2.347-3.284-4.101h-1.296c-1.654 0-3-1.346-3-3 0-1.526 1.149-2.775 2.626-2.962l-.356-1.067c-.179-.534-.27-1.093-.27-1.658 0-2.41 1.633-4.501 3.971-5.084l.528-.133c1.438-1.334 3.364-2.095 5.329-2.095h1.149c3.873 0 7.023 3.15 7.023 7.022 0 .756-.121 1.503-.359 2.22l-.266.796c1.476.187 2.625 1.436 2.625 2.962 0 1.654-1.346 3-3 3h-1.295c-.524 1.753-1.718 3.218-3.284 4.1l.344 1.033c2.18.436 4.111 1.538 5.565 3.14.942-.722 2-1.295 3.146-1.684.492-2.095 2.122-3.77 4.216-4.293.333-.083.598-.328.707-.654l.227-.683c-1.499-1.023-2.505-2.708-2.61-4.631l-.817-1.226c-.784-1.176-1.199-2.546-1.199-3.961 0-3.938 3.203-7.141 7.141-7.141h1.719c3.937 0 7.14 3.203 7.14 7.141 0 1.415-.415 2.785-1.199 3.961l-.817 1.226c-.105 1.922-1.111 3.607-2.61 4.63l.228.685c.108.325.373.57.706.654 2.156.537 3.831 2.294 4.267 4.474l.406 2.033-1.961.393-.406-2.033c-.285-1.426-1.38-2.574-2.79-2.926-1.001-.251-1.793-.984-2.119-1.963l-.161-.483c-.494.131-1.01.208-1.544.208s-1.049-.077-1.543-.208l-.16.482c-.327.979-1.119 1.713-2.12 1.963-1.024.256-1.878.935-2.38 1.833.396-.044.796-.07 1.203-.07 6.065 0 11 4.935 11 11v6.395c0 2.16.634 4.253 1.832 6.051l.555.832-4.582 3.055c3.787 2.571 6.195 6.908 6.195 11.667zm-16-53.859c0 .519.079 1.029.23 1.516.168-.327.417-.612.741-.806l5.029-3.017 5.029 3.018c.323.194.572.478.741.806.151-.489.23-.999.23-1.517 0-2.835-2.306-5.141-5.141-5.141h-1.719c-2.834 0-5.14 2.306-5.14 5.141zm2 4.859c0 2.206 1.794 4 4 4s4-1.794 4-4v-2.434l-4-2.4-4 2.4zm-1 12c-4.963 0-9 4.037-9 9v6.395c0 2.222-.566 4.382-1.646 6.307l3.789 2.526c.714-.333 1.462-.611 2.241-.823l.223-.061c.348-.095.619-.372.707-.724l.365-1.46c-2.188-1.184-3.679-3.501-3.679-6.16v-5.93c0-1.005.499-1.938 1.336-2.496l2.109-1.406 1.109 1.664-2.109 1.406c-.279.186-.445.497-.445.832v5.93c0 2.757 2.243 5 5 5s5-2.243 5-5v-6.172c0-.263-.106-.521-.293-.707l-3.414-3.414 1.414-1.414 3.414 3.414c.566.566.879 1.32.879 2.121v6.172c0 2.659-1.491 4.976-3.68 6.16l.365 1.461c.088.351.359.628.707.723l.223.061c.779.212 1.527.49 2.241.823l3.789-2.526c-1.079-1.926-1.645-4.086-1.645-6.307v-6.395c0-4.963-4.037-9-9-9zm-3.853 25.267.304 2.733h7.098l.304-2.733c-1.037-.289-1.845-1.114-2.107-2.161l-.314-1.255c-.462.097-.941.149-1.432.149s-.97-.052-1.432-.149l-.314 1.254c-.262 1.048-1.069 1.873-2.107 2.162zm.721 4.733c.556 1.189 1.752 2 3.132 2s2.576-.811 3.132-2zm-7.351-30.168-.181.635c-.946 3.309-2.472 6.381-4.536 9.133l-.8 1.067-.8-1.067c-2.064-2.752-3.59-5.824-4.536-9.133l-.165-.579-1.015.338c.955 1.461 1.516 3.202 1.516 5.075 0 1.267-.299 2.535-.865 3.667l-.706 1.411c.931.509 1.571 1.487 1.571 2.621 0 1.654-1.346 3-3 3h-1.08c-.321 2.231-1.691 4.127-3.6 5.16l.365 1.461c.088.351.359.628.707.723l.223.061c5.79 1.579 9.92 6.677 10.343 12.596h2.084c.311-4.361 2.633-8.277 6.154-10.667l-4.582-3.055.555-.832c1.197-1.8 1.831-3.892 1.831-6.052v-6.395c0-2.838 1.089-5.419 2.86-7.372-.669-.741-1.462-1.348-2.343-1.796zm-20.349 25.702 2.489 1.493.196-1.761c-.39-.109-.732-.311-1.04-.555zm-1.168 1.632-3.389 2.033c.317 1.613 1.717 2.801 3.389 2.801s3.072-1.188 3.389-2.801zm7-13.166h1c.552 0 1-.448 1-1s-.448-1-1-1h-1zm7.394-17.02 1.606 1.606 1.606-1.606-.053-.16c-.501.114-1.019.18-1.553.18s-1.052-.066-1.552-.18zm4.255 1.786-1.735 1.734 1.713 1.713c.292-.752.562-1.514.785-2.295l.217-.762c-.071-.016-.14-.038-.212-.052-.288-.059-.541-.184-.768-.338zm-2.649 3.648-1.765 1.765c.52 1.067 1.1 2.104 1.765 3.095.664-.991 1.245-2.028 1.765-3.095zm-2.692-3.692c-.272.223-.573.412-.911.529l.19.667c.223.781.493 1.543.785 2.295l1.713-1.713zm10.692-10.722h-1v2h1c.552 0 1-.448 1-1s-.448-1-1-1zm-15 2v-2h-1c-.552 0-1 .448-1 1s.448 1 1 1zm7 5c2.757 0 5-2.243 5-5v-3.93c0-.335-.166-.646-.445-.832l-2.109-1.406 1.109-1.664 2.109 1.406c.454.302.797.72 1.026 1.195l.053-.159c.17-.512.257-1.047.257-1.588 0-2.769-2.253-5.022-5.022-5.022h-1.149c-1.534 0-3.036.622-4.121 1.707l-.195.195-1.056.265c-1.447.361-2.457 1.654-2.457 3.145 0 .35.056.694.166 1.025l.174.522c.285-.552.736-1.014 1.318-1.306l3.447-1.724 4.495 3.371-1.2 1.6-3.506-2.629-2.342 1.171c-.34.17-.552.512-.552.894v3.764c0 2.757 2.243 5 5 5zm-27-9.434c0-.698.372-1.355.971-1.715l5.029-3.017 5.029 3.018c.599.359.971 1.016.971 1.714v-1.566c0-3.309-2.691-6-6-6s-6 2.691-6 6zm2.627 7.392c-1.584-1.081-2.627-2.9-2.627-4.958v1.898c0 1.609.437 3.161 1.227 4.55.154-.053.306-.113.466-.153.333-.083.598-.328.707-.654zm3.373-.958c2.206 0 4-1.794 4-4v-2.434l-4-2.4-4 2.4v2.434c0 2.206 1.794 4 4 4zm4.308 2.297c.146.036.283.098.425.145.815-1.557 1.267-3.279 1.267-5.047v-1.395c0 2.058-1.042 3.877-2.626 4.958l.228.685c.108.325.373.57.706.654zm-7.308 19.703h1v-2h-1c-.552 0-1 .448-1 1s.448 1 1 1zm8 6c2.757 0 5-2.243 5-5v-6.172c0-.263-.106-.521-.293-.707l-3.414-3.414 1.414-1.414 3.414 3.414c.566.566.879 1.32.879 2.121v1.172h.382l.964-1.927c.427-.855.654-1.814.654-2.772 0-4.026-3.275-7.301-7.301-7.301-2.55 0-4.948 1.358-6.26 3.545l-.795 1.325-.907.227c-1.611.402-2.737 1.844-2.737 3.506 0 .716.21 1.409.607 2.004l.928 1.393h.465v-.93c0-1.005.499-1.938 1.336-2.496l2.109-1.406 1.109 1.664-2.109 1.406c-.279.186-.445.497-.445.832v5.93c0 2.757 2.243 5 5 5zm-1.432 1.851-.292 1.168 1.724.863 1.724-.862-.292-1.169c-.462.097-.941.149-1.432.149s-.97-.052-1.432-.149zm-2.421 3.416.196 1.761 2.489-1.493-1.645-.823c-.308.244-.65.447-1.04.555zm-9.106 10.733h3.959v-2.586c0-.645-.251-1.251-.707-1.707l1.414-1.414c.834.834 1.293 1.942 1.293 3.121v2.586h14v-2.586c0-1.179.459-2.287 1.293-3.121l1.414 1.414c-.456.456-.707 1.063-.707 1.707v2.586h3.958c-.367-4.418-3.15-8.278-7.168-10.055l-.355 3.19c-.307 2.773-2.644 4.865-5.435 4.865s-5.128-2.092-5.436-4.865l-.355-3.194c-4.018 1.777-6.8 5.64-7.168 10.059zm57.918 0c-.368-4.419-3.149-8.282-7.168-10.059l-.355 3.194c-.308 2.773-2.645 4.865-5.436 4.865s-5.128-2.092-5.436-4.865l-.355-3.19c-4.018 1.777-6.8 5.637-7.168 10.055h3.959v-2.586c0-.645-.251-1.251-.707-1.707l1.414-1.414c.834.834 1.293 1.942 1.293 3.121v2.586h14v-2.586c0-1.179.459-2.287 1.293-3.121l1.414 1.414c-.456.456-.707 1.063-.707 1.707v2.586zm-10.252-28.707-4-4-1.414 1.414 4 4zm-1.707 2.707h-2v4h2zm1 4.764c-.381.762-1.147 1.236-2 1.236s-1.619-.474-2-1.236l-.105-.211-1.789.895.105.211c.722 1.444 2.174 2.341 3.789 2.341s3.067-.897 3.789-2.342l.105-.211-1.789-.895zm-33 13.236h-2v2h2zm-5-40.414c-.535.533-1.465.533-2 0l-.293-.293-1.414 1.414.293.293c.645.645 1.502 1 2.414 1s1.77-.355 2.414-1l.293-.293-1.414-1.414zm41 2.414c.912 0 1.77-.355 2.414-1l.293-.293-1.414-1.414-.293.293c-.535.533-1.465.533-2 0l-.293-.293-1.414 1.414.293.293c.644.645 1.502 1 2.414 1zm-18.586 2 .293-.293-1.414-1.414-.293.293c-.535.533-1.465.533-2 0l-.293-.293-1.414 1.414.293.293c.645.645 1.502 1 2.414 1s1.77-.355 2.414-1z" fill="url(#SVGID_1_)"/></svg>